<svg xmlns="http://www.w3.org/2000/svg" width="34" height="34" viewBox="0 0 34 34">
  <defs>
    <style>
      .cls-1 {
        fill: #18cfab;
        fill-rule: evenodd;
      }
    </style>
  </defs>
  <path id="Forma_1" data-name="Forma 1" class="cls-1" d="M1230.98,1653.3l-6.36-6.36a12.415,12.415,0,0,1-3.68,3.68l6.37,6.36A2.6,2.6,0,0,0,1230.98,1653.3Zm-6.17-12.9a10.405,10.405,0,1,0-10.41,10.41A10.407,10.407,0,0,0,1224.81,1640.4Zm-10.41,7.81a7.805,7.805,0,1,1,7.81-7.81A7.812,7.812,0,0,1,1214.4,1648.21Zm-6.06-7.81h1.73a4.332,4.332,0,0,1,4.33-4.33v-1.74A6.077,6.077,0,0,0,1208.34,1640.4Z" transform="translate(-1200.875 -1626.875)"/>
</svg>
